Coordinates
version=1
nRows=29
nColumns=24
inDegrees=yes

Units are S.I. units (second, meters, Newtons, ...)
Angles are in degrees.

endheader
time	pelvis_tilt	pelvis_list	pelvis_rotation	pelvis_tx	pelvis_ty	pelvis_tz	hip_flexion_r	hip_adduction_r	hip_rotation_r	knee_angle_r	ankle_angle_r	subtalar_angle_r	mtp_angle_r	hip_flexion_l	hip_adduction_l	hip_rotation_l	knee_angle_l	ankle_angle_l	subtalar_angle_l	mtp_angle_l	lumbar_extension	lumbar_bending	lumbar_rotation
      7.72000000	     66.04120397	      5.48498388	     -1.62193815	      0.56037701	      1.06115419	     -0.30709329	      1.35206508	    -13.98256006	      2.60724871	    -61.63014189	    -17.60832595	     -2.15682073	      0.00000000	      1.36893406	     -5.32938716	      0.79029815	    -61.83769017	     -6.69443115	     25.44595492	      0.00000000	      0.00000000	      0.00000000	      0.00000000
      7.73000000	     66.03902405	      5.48440698	     -1.62030747	      0.56038481	      1.06117057	     -0.30710322	      1.35068960	    -13.98491709	      2.60717983	    -61.62764932	    -17.61030072	     -2.16381328	      0.00000000	      1.37158071	     -5.33204139	      0.79886918	    -61.85624139	     -6.69638473	     25.46228306	      0.00000000	      0.00000000	      0.00000000	      0.00000000
      7.74000000	     66.03688252	      5.48319364	     -1.61824245	      0.56039208	      1.06118079	     -0.30711342	      1.34959174	    -13.98683206	      2.60633580	    -61.62629502	    -17.61149650	     -2.17067126	      0.00000000	      1.37430043	     -5.33505847	      0.80631839	    -61.87512942	     -6.69507608	     25.47734713	      0.00000000	      0.00000000	      0.00000000	      0.00000000
      7.75000000	     66.03430211	      5.48153393	     -1.61613227	      0.56040004	      1.06118467	     -0.30712129	      1.34958963	    -13.98819389	      2.60532456	    -61.62701203	    -17.61171913	     -2.17693007	      0.00000000	      1.37682251	     -5.33851832	      0.81099504	    -61.89281241	     -6.68607635	     25.48748364	      0.00000000	      0.00000000	      0.00000000	      0.00000000
      7.76000000	     66.03096882	      5.47983373	     -1.61445631	      0.56040970	      1.06118725	     -0.30712638	      1.35136424	    -13.98894959	      2.60457284	    -61.63012601	    -17.61091478	     -2.18205089	      0.00000000	      1.37899967	     -5.34251905	      0.81254010	    -61.90806509	     -6.66768369	     25.49034071	      0.00000000	      0.00000000	      0.00000000	      0.00000000
      7.77000000	     66.02672504	      5.47830041	     -1.61337962	      0.56042066	      1.06118820	     -0.30712911	      1.35526447	    -13.98904597	      2.60422402	    -61.63530693	    -17.60910573	     -2.18559147	      0.00000000	      1.38069738	     -5.34675094	      0.81146801	    -61.92064848	     -6.64148815	     25.48543523	      0.00000000	      0.00000000	      0.00000000	      0.00000000
      7.78000000	     66.02168626	      5.47689810	     -1.61273800	      0.56043045	      1.06118343	     -0.30713080	      1.36110517	    -13.98860153	      2.60422274	    -61.64168149	    -17.60632490	     -2.18738301	      0.00000000	      1.38186365	     -5.35064978	      0.80884804	    -61.93137689	     -6.61174804	     25.47415526	      0.00000000	      0.00000000	      0.00000000	      0.00000000
      7.79000000	     66.01643875	      5.47557486	     -1.61244578	      0.56043782	      1.06117324	     -0.30713208	      1.36802354	    -13.98805887	      2.60439452	    -61.64808146	    -17.60260745	     -2.18761524	      0.00000000	      1.38281081	     -5.35381690	      0.80611334	    -61.94152563	     -6.58382936	     25.45927572	      0.00000000	      0.00000000	      0.00000000	      0.00000000
      7.80000000	     66.01179556	      5.47435468	     -1.61267937	      0.56044536	      1.06116088	     -0.30712965	      1.37453602	    -13.98807417	      2.60442848	    -61.65344843	    -17.59804453	     -2.18678954	      0.00000000	      1.38409834	     -5.35614003	      0.80464359	    -61.95196969	     -6.56224469	     25.44416200	      0.00000000	      0.00000000	      0.00000000	      0.00000000
      7.81000000	     66.00834636	      5.47351109	     -1.61372265	      0.56045492	      1.06115310	     -0.30712254	      1.37902866	    -13.98920285	      2.60388499	    -61.65725349	    -17.59284626	     -2.18557589	      0.00000000	      1.38596925	     -5.35781860	      0.80529112	    -61.96257761	     -6.54905529	     25.43186208	      0.00000000	      0.00000000	      0.00000000	      0.00000000
      7.82000000	     66.00642481	      5.47368120	     -1.61555192	      0.56046442	      1.06116178	     -0.30712045	      1.38054209	    -13.99150427	      2.60230124	    -61.65970152	    -17.58736146	     -2.18463149	      0.00000000	      1.38797029	     -5.35922471	      0.80797027	    -61.97206565	     -6.54332072	     25.42434271	      0.00000000	      0.00000000	      0.00000000	      0.00000000
      7.83000000	     66.00617118	      5.47538505	     -1.61720563	      0.56047120	      1.06118489	     -0.30712841	      1.37926668	    -13.99430259	      2.59936036	    -61.66161613	    -17.58205103	     -2.18442824	      0.00000000	      1.38893135	     -5.36029680	      0.81132981	    -61.97845398	     -6.54187420	     25.42212361	      0.00000000	      0.00000000	      0.00000000	      0.00000000
      7.84000000	     66.00762077	      5.47872092	     -1.61710100	      0.56047303	      1.06119848	     -0.30713168	      1.37639114	    -13.99646229	      2.59510304	    -61.66402919	    -17.57741947	     -2.18514030	      0.00000000	      1.38758671	     -5.36046073	      0.81334046	    -61.98011534	     -6.54115500	     25.42440911	      0.00000000	      0.00000000	      0.00000000	      0.00000000
      7.85000000	     66.01084017	      5.48371303	     -1.61462894	      0.56046617	      1.06118326	     -0.30710879	      1.37339899	    -13.99718977	      2.59011066	    -61.66767320	    -17.57389670	     -2.18662164	      0.00000000	      1.38369856	     -5.35958056	      0.81289506	    -61.97684621	     -6.53918937	     25.42958297	      0.00000000	      0.00000000	      0.00000000	      0.00000000
      7.86000000	     66.01562380	      5.49032848	     -1.61117976	      0.56044866	      1.06114615	     -0.30705384	      1.37131141	    -13.99670419	      2.58544790	    -61.67264823	    -17.57168475	     -2.18845051	      0.00000000	      1.37851847	     -5.35852819	      0.81075478	    -61.97023314	     -6.53655303	     25.43576967	      0.00000000	      0.00000000	      0.00000000	      0.00000000
      7.87000000	     66.02099911	      5.49792771	     -1.60921776	      0.56042631	      1.06111222	     -0.30698579	      1.37045545	    -13.99599743	      2.58222792	    -61.67843806	    -17.57062237	     -2.19000564	      0.00000000	      1.37408833	     -5.35842893	      0.80864744	    -61.96293764	     -6.53570478	     25.44120847	      0.00000000	      0.00000000	      0.00000000	      0.00000000
      7.88000000	     66.02534566	      5.50509042	     -1.61022715	      0.56041056	      1.06110053	     -0.30693048	      1.37084539	    -13.99585482	      2.58102617	    -61.68422880	    -17.57016124	     -2.19057276	      0.00000000	      1.37211329	     -5.35948106	      0.80742920	    -61.95721315	     -6.53915719	     25.44442001	      0.00000000	      0.00000000	      0.00000000	      0.00000000
      7.89000000	     66.02712567	      5.51035056	     -1.61361023	      0.56040811	      1.06110856	     -0.30689875	      1.37266974	    -13.99618294	      2.58158320	    -61.68930318	    -17.56953696	     -2.18949479	      0.00000000	      1.37324659	     -5.36077599	      0.80626060	    -61.95366984	     -6.54776921	     25.44435786	      0.00000000	      0.00000000	      0.00000000	      0.00000000
      7.90000000	     66.02557976	      5.51321524	     -1.61748275	      0.56041593	      1.06112100	     -0.30688967	      1.37635740	    -13.99623112	      2.58299321	    -61.69330610	    -17.56809956	     -2.18634851	      0.00000000	      1.37708805	     -5.36123424	      0.80353203	    -61.95113003	     -6.56029541	     25.44071670	      0.00000000	      0.00000000	      0.00000000	      0.00000000
      7.91000000	     66.02100820	      5.51433592	     -1.62021750	      0.56042633	      1.06112563	     -0.30689358	      1.38225097	    -13.99534839	      2.58420324	    -61.69626794	    -17.56562730	     -2.18110309	      0.00000000	      1.38266020	     -5.36041682	      0.79838986	    -61.94750095	     -6.57434453	     25.43431655	      0.00000000	      0.00000000	      0.00000000	      0.00000000
      7.92000000	     66.01456437	      5.51475122	     -1.62141460	      0.56043633	      1.06111847	     -0.30689512	      1.39022509	    -13.99359710	      2.58451003	    -61.69842260	    -17.56243661	     -2.17420505	      0.00000000	      1.38893602	     -5.35856093	      0.79152871	    -61.94099921	     -6.58796365	     25.42723636	      0.00000000	      0.00000000	      0.00000000	      0.00000000
      7.93000000	     66.00770409	      5.51535015	     -1.62196353	      0.56044757	      1.06110535	     -0.30689006	      1.39947093	    -13.99172443	      2.58377780	    -61.69998633	    -17.55922589	     -2.16653358	      0.00000000	      1.39518100	     -5.35631904	      0.78493577	    -61.93106555	     -6.60077196	     25.42239750	      0.00000000	      0.00000000	      0.00000000	      0.00000000
      7.94000000	     66.00163567	      5.51675405	     -1.62310665	      0.56045808	      1.06109710	     -0.30688730	      1.40862056	    -13.99055038	      2.58228506	    -61.70099732	    -17.55673376	     -2.15920749	      0.00000000	      1.40098251	     -5.35431012	      0.78075162	    -61.91849980	     -6.61394341	     25.42260628	      0.00000000	      0.00000000	      0.00000000	      0.00000000
      7.95000000	     65.99703800	      5.51904167	     -1.62506423	      0.56046269	      1.06109638	     -0.30688948	      1.41627876	    -13.99036257	      2.58037482	    -61.70121574	    -17.55538352	     -2.15328473	      0.00000000	      1.40597899	     -5.35252518	      0.77992560	    -61.90482793	     -6.62917255	     25.42941454	      0.00000000	      0.00000000	      0.00000000	      0.00000000
      7.96000000	     65.99411575	      5.52172380	     -1.62678451	      0.56046070	      1.06109603	     -0.30688519	      1.42154831	    -13.99077829	      2.57816279	    -61.70019835	    -17.55508713	     -2.14944938	      0.00000000	      1.40980768	     -5.35037382	      0.78185875	    -61.89140090	     -6.64741856	     25.44232089	      0.00000000	      0.00000000	      0.00000000	      0.00000000
      7.97000000	     65.99271930	      5.52427157	     -1.62723173	      0.56045688	      1.06109356	     -0.30686888	      1.42410771	    -13.99107801	      2.57549737	    -61.69764208	    -17.55527890	     -2.14780095	      0.00000000	      1.41246694	     -5.34756404	      0.78527665	    -61.87878389	     -6.66815429	     25.45870628	      0.00000000	      0.00000000	      0.00000000	      0.00000000
      7.98000000	     65.99226844	      5.52637919	     -1.62636752	      0.56045557	      1.06109405	     -0.30685130	      1.42415351	    -13.99066709	      2.57218504	    -61.69371895	    -17.55511697	     -2.14781762	      0.00000000	      1.41434825	     -5.34465949	      0.78908296	    -61.86673226	     -6.68934714	     25.47454495	      0.00000000	      0.00000000	      0.00000000	      0.00000000
      7.99000000	     65.99190358	      5.52781771	     -1.62476212	      0.56045899	      1.06110190	     -0.30684273	      1.42254058	    -13.98924050	      2.56822284	    -61.68908421	    -17.55374107	     -2.14848856	      0.00000000	      1.41589873	     -5.34272569	      0.79238091	    -61.85457044	     -6.70805886	     25.48558717	      0.00000000	      0.00000000	      0.00000000	      0.00000000
      8.00000000	     65.99086199	      5.52849761	     -1.62285930	      0.56046567	      1.06111563	     -0.30683856	      1.42071949	    -13.98664513	      2.56381438	    -61.68464419	    -17.55050874	     -2.14856532	      0.00000000	      1.41748185	     -5.34262455	      0.79414242	    -61.84170381	     -6.72144974	     25.48858800	      0.00000000	      0.00000000	      0.00000000	      0.00000000
